<svg width="211" height="36" viewBox="0 0 211 36" fill="none" xmlns="http://www.w3.org/2000/svg">
<path fill-rule="evenodd" clip-rule="evenodd" d="M10.8555 0.246505C5.12351 0.577895 0.577895 5.12351 0.246505 10.8556C0.10478 13.307 0 15.8473 0 18C0 20.1527 0.10478 22.693 0.246505 25.1445C0.577895 30.8765 5.12351 35.4221 10.8556 35.7535C13.307 35.8952 15.8473 36 18 36C20.1527 36 22.693 35.8952 25.1445 35.7535C30.8765 35.4221 35.4221 30.8765 35.7535 25.1444C35.8952 22.693 36 20.1527 36 18C36 15.8473 35.8952 13.307 35.7535 10.8555C35.4221 5.12351 30.8765 0.577895 25.1444 0.246505C22.693 0.10478 20.1527 0 18 0C15.8473 0 13.307 0.10478 10.8555 0.246505ZM16 29L28 24V13L20 7L16 8.78876V20.8372L20 19V12L24 15V21.5L16 25V29ZM12 22.6604L8 24.5V12.5L12 10.6314V22.6604ZM115.953 27.88H119.873V23.54L121.665 21.636L126.145 27.88H130.905L124.325 18.752L129.561 13.096H124.969L119.873 18.696V8H115.953V27.88ZM56.664 27.88H50V8.28H56.664C62.74 8.28 66.464 12.256 66.464 18.08C66.464 23.904 62.74 27.88 56.664 27.88ZM54.032 11.864V24.296H56.72C60.332 24.296 62.432 21.804 62.432 18.08C62.432 14.356 60.332 11.864 56.72 11.864H54.032ZM83.987 20.488C83.987 24.688 80.795 28.16 76.203 28.16C71.611 28.16 68.419 24.688 68.419 20.488C68.419 16.316 71.611 12.816 76.203 12.816C80.795 12.816 83.987 16.316 83.987 20.488ZM72.339 20.488C72.339 23.344 73.879 24.912 76.203 24.912C78.527 24.912 80.067 23.344 80.067 20.488C80.067 17.66 78.527 16.064 76.203 16.064C73.879 16.064 72.339 17.66 72.339 20.488ZM93.5531 28.16C98.1451 28.16 101.337 24.688 101.337 20.488C101.337 16.316 98.1451 12.816 93.5531 12.816C88.9611 12.816 85.7691 16.316 85.7691 20.488C85.7691 24.688 88.9611 28.16 93.5531 28.16ZM93.5531 24.912C91.2291 24.912 89.6891 23.344 89.6891 20.488C89.6891 17.66 91.2291 16.064 93.5531 16.064C95.8771 16.064 97.4171 17.66 97.4171 20.488C97.4171 23.344 95.8771 24.912 93.5531 24.912ZM108.327 14.664C109.195 13.46 110.455 12.816 112.135 12.816C112.723 12.816 113.255 12.928 113.647 13.068V16.652C112.975 16.344 112.303 16.232 111.687 16.232C109.307 16.232 107.963 18.024 107.963 21.272V27.88H104.071V13.096H107.655L108.327 14.664ZM145.011 24.968C143.723 27.012 141.399 28.16 138.515 28.16C135.183 28.16 131.011 26.032 131.011 20.488C131.011 16.596 133.643 12.816 138.487 12.816C143.583 12.816 145.963 16.568 145.963 20.46V21.832H134.819C135.183 23.904 136.583 24.968 138.515 24.968C140.223 24.968 141.259 24.296 142.043 23.064L145.011 24.968ZM138.571 16.008C136.863 16.008 135.575 16.876 134.959 18.752H142.071C141.679 17.156 140.503 16.008 138.571 16.008ZM155.264 28.16C158.148 28.16 160.472 27.012 161.76 24.968L158.792 23.064C158.008 24.296 156.972 24.968 155.264 24.968C153.332 24.968 151.932 23.904 151.568 21.832H162.712V20.46C162.712 16.568 160.332 12.816 155.236 12.816C150.392 12.816 147.76 16.596 147.76 20.488C147.76 26.032 151.932 28.16 155.264 28.16ZM151.708 18.752C152.324 16.876 153.612 16.008 155.32 16.008C157.252 16.008 158.428 17.156 158.82 18.752H151.708ZM169.52 14.44C170.416 13.488 171.816 12.816 173.804 12.816C178.116 12.816 180.944 16.036 180.944 20.46C180.944 24.884 178.116 28.16 173.804 28.16C171.816 28.16 170.304 27.572 169.38 26.424V32.92H165.46V13.096H168.988L169.52 14.44ZM169.072 20.46C169.072 22.84 170.416 24.912 173.048 24.912C175.68 24.912 177.024 22.84 177.024 20.46C177.024 18.08 175.68 16.064 173.048 16.064C170.416 16.064 169.072 18.08 169.072 20.46ZM190.237 28.16C193.121 28.16 195.445 27.012 196.733 24.968L193.765 23.064C192.981 24.296 191.945 24.968 190.237 24.968C188.305 24.968 186.905 23.904 186.541 21.832H197.685V20.46C197.685 16.568 195.305 12.816 190.209 12.816C185.365 12.816 182.733 16.596 182.733 20.488C182.733 26.032 186.905 28.16 190.237 28.16ZM186.681 18.752C187.297 16.876 188.585 16.008 190.293 16.008C192.225 16.008 193.401 17.156 193.793 18.752H186.681ZM204.69 14.664C205.558 13.46 206.818 12.816 208.498 12.816C209.086 12.816 209.618 12.928 210.01 13.068V16.652C209.338 16.344 208.666 16.232 208.05 16.232C205.67 16.232 204.326 18.024 204.326 21.272V27.88H200.434V13.096H204.018L204.69 14.664Z" fill="#0F4FF4"/>
</svg>
